{
	"asset":{
		"generator":"Khronos glTF Blender I/O v4.1.63",
		"version":"2.0"
	},
	"scene":0,
	"scenes":[
		{
			"name":"Scene",
			"nodes":[
				0
			]
		}
	],
	"nodes":[
		{
			"mesh":0,
			"name":"Action Verticale Wall",
			"translation":[
				0,
				6.2786688804626465,
				0
			]
		}
	],
	"materials":[
		{
			"doubleSided":true,
			"name":"White",
			"pbrMetallicRoughness":{
				"baseColorFactor":[
					0.7442808151245117,
					0.6832239031791687,
					0.6302019357681274,
					1
				],
				"metallicFactor":0,
				"roughnessFactor":0.6000000238418579
			}
		},
		{
			"doubleSided":true,
			"name":"Dark Gray",
			"pbrMetallicRoughness":{
				"baseColorFactor":[
					0.06965687870979309,
					0.06549493968486786,
					0.08716100454330444,
					1
				],
				"metallicFactor":0,
				"roughnessFactor":0.6000000238418579
			}
		},
		{
			"doubleSided":true,
			"name":"Material",
			"pbrMetallicRoughness":{
				"baseColorFactor":[
					0.6009405255317688,
					0.49193519353866577,
					0.03919459134340286,
					1
				],
				"metallicFactor":0,
				"roughnessFactor":0.6000000238418579
			}
		}
	],
	"meshes":[
		{
			"name":"Cube.001",
			"primitives":[
				{
					"attributes":{
						"POSITION":0,
						"NORMAL":1,
						"TEXCOORD_0":2
					},
					"indices":3,
					"material":0
				},
				{
					"attributes":{
						"POSITION":4,
						"NORMAL":5,
						"TEXCOORD_0":6
					},
					"indices":7,
					"material":1
				},
				{
					"attributes":{
						"POSITION":8,
						"NORMAL":9,
						"TEXCOORD_0":10
					},
					"indices":11,
					"material":2
				}
			]
		}
	],
	"accessors":[
		{
			"bufferView":0,
			"componentType":5126,
			"count":228,
			"max":[
				4.051802635192871,
				6.40498685836792,
				20.793109893798828
			],
			"min":[
				-1,
				-6.397877216339111,
				-18.11134147644043
			],
			"type":"VEC3"
		},
		{
			"bufferView":1,
			"componentType":5126,
			"count":228,
			"type":"VEC3"
		},
		{
			"bufferView":2,
			"componentType":5126,
			"count":228,
			"type":"VEC2"
		},
		{
			"bufferView":3,
			"componentType":5123,
			"count":420,
			"type":"SCALAR"
		},
		{
			"bufferView":4,
			"componentType":5126,
			"count":36,
			"max":[
				4.051802635192871,
				6.40498685836792,
				11.804702758789062
			],
			"min":[
				0.9466633796691895,
				-6.397745132446289,
				-9.78911018371582
			],
			"type":"VEC3"
		},
		{
			"bufferView":5,
			"componentType":5126,
			"count":36,
			"type":"VEC3"
		},
		{
			"bufferView":6,
			"componentType":5126,
			"count":36,
			"type":"VEC2"
		},
		{
			"bufferView":7,
			"componentType":5123,
			"count":54,
			"type":"SCALAR"
		},
		{
			"bufferView":8,
			"componentType":5126,
			"count":59,
			"max":[
				4.051384449005127,
				6.399150848388672,
				16.563997268676758
			],
			"min":[
				0.9796291589736938,
				-6.397745132446289,
				-18.11134147644043
			],
			"type":"VEC3"
		},
		{
			"bufferView":9,
			"componentType":5126,
			"count":59,
			"type":"VEC3"
		},
		{
			"bufferView":10,
			"componentType":5126,
			"count":59,
			"type":"VEC2"
		},
		{
			"bufferView":11,
			"componentType":5123,
			"count":99,
			"type":"SCALAR"
		}
	],
	"bufferViews":[
		{
			"buffer":0,
			"byteLength":2736,
			"byteOffset":0,
			"target":34962
		},
		{
			"buffer":0,
			"byteLength":2736,
			"byteOffset":2736,
			"target":34962
		},
		{
			"buffer":0,
			"byteLength":1824,
			"byteOffset":5472,
			"target":34962
		},
		{
			"buffer":0,
			"byteLength":840,
			"byteOffset":7296,
			"target":34963
		},
		{
			"buffer":0,
			"byteLength":432,
			"byteOffset":8136,
			"target":34962
		},
		{
			"buffer":0,
			"byteLength":432,
			"byteOffset":8568,
			"target":34962
		},
		{
			"buffer":0,
			"byteLength":288,
			"byteOffset":9000,
			"target":34962
		},
		{
			"buffer":0,
			"byteLength":108,
			"byteOffset":9288,
			"target":34963
		},
		{
			"buffer":0,
			"byteLength":708,
			"byteOffset":9396,
			"target":34962
		},
		{
			"buffer":0,
			"byteLength":708,
			"byteOffset":10104,
			"target":34962
		},
		{
			"buffer":0,
			"byteLength":472,
			"byteOffset":10812,
			"target":34962
		},
		{
			"buffer":0,
			"byteLength":198,
			"byteOffset":11284,
			"target":34963
		}
	],
	"buffers":[
		{
			"byteLength":11484,
			"uri":"wall.bin"
		}
	]
}
